<svg width="640" height="840" viewBox="0 0 640 840" fill="none" xmlns="http://www.w3.org/2000/svg">
  <defs>
    <radialGradient id="bgGlow" cx="50%" cy="55%" r="55%">
      <stop offset="0%" stop-color="#8B5CF6" stop-opacity="0.25"/>
      <stop offset="100%" stop-color="#0B1220" stop-opacity="0"/>
    </radialGradient>
    <linearGradient id="terminalGlow" x1="0" y1="0" x2="0" y2="1">
      <stop offset="0%" stop-color="#60A5FA" stop-opacity="0.9"/>
      <stop offset="100%" stop-color="#0B1220" stop-opacity="0.2"/>
    </linearGradient>
  </defs>
  <rect width="640" height="840" fill="url(#bgGlow)"/>
  <path d="M320 120C220 140 150 230 140 340C128 470 216 540 320 560C424 540 512 470 500 340C490 230 420 140 320 120Z" fill="#0B1220"/>
  <path d="M320 220C260 230 220 300 230 370C240 450 280 480 320 490C360 480 400 450 410 370C420 300 380 230 320 220Z" fill="#111827"/>
  <path d="M120 540C180 500 240 490 320 500C400 490 460 500 520 540L590 780C500 820 420 840 320 840C220 840 140 820 50 780L120 540Z" fill="#0F172A"/>
  <rect x="150" y="560" width="340" height="190" rx="20" fill="url(#terminalGlow)" stroke="#60A5FA" stroke-opacity="0.35"/>
  <rect x="180" y="590" width="210" height="8" rx="4" fill="#E2E8F0" opacity="0.35"/>
  <rect x="180" y="612" width="160" height="8" rx="4" fill="#93C5FD" opacity="0.4"/>
  <rect x="180" y="634" width="230" height="8" rx="4" fill="#E2E8F0" opacity="0.3"/>
  <rect x="180" y="656" width="120" height="8" rx="4" fill="#93C5FD" opacity="0.35"/>
  <rect x="180" y="678" width="200" height="8" rx="4" fill="#E2E8F0" opacity="0.25"/>
</svg>
